<svg id="Layer_1" data-name="Layer 1" xmlns="http://www.w3.org/2000/svg" xmlns:xlink="http://www.w3.org/1999/xlink" viewBox="0 0 120 120">
    <defs><filter id="luminosity-noclip" x="39.728" y="29.2" width="18.964" height="46.163" filterUnits="userSpaceOnUse" color-interpolation-filters="sRGB"><feFlood flood-color="#fff" result="bg"/>
        <feBlend in="SourceGraphic" in2="bg"/></filter><mask id="mask" x="39.728" y="29.2" width="18.964" height="46.163" maskUnits="userSpaceOnUse">
            <g id="Mask-2" data-name="Mask" filter="url(#luminosity-noclip)">
                <path d="M40.3,74.009H55.268a.3.3,0,0,0,.3-.3V54.487A1.491,1.491,0,0,0,54.083,53H41.126A1.13,1.13,0,0,0,40,54.126V73.707A.3.3,0,0,0,40.3,74.009Z"/></g></mask></defs>
                <g id="CivilRIghts"><g id="Scale"><line x1="71.312" y1="39.274" x2="74.868" y2="39.274" fill="none" stroke="#fff" stroke-linecap="round" stroke-miterlimit="10" stroke-width="1.6"/><line x1="58" y1="39.274" x2="66.371" y2="39.274" fill="none" stroke="#fff" stroke-linecap="round" stroke-miterlimit="10" stroke-width="1.6"/><polyline points="62.123 64.368 68.495 44 74.868 64.523" fill="none" stroke="#fff" stroke-miterlimit="10" stroke-width="1.6"/>
                    <path d="M63.91,64.291h9.171a4.973,4.973,0,0,1,4.973,4.973v8.673a0,0,0,0,1,0,0H58.937a0,0,0,0,1,0,0V69.264A4.973,4.973,0,0,1,63.91,64.291Z" transform="translate(136.99 142.228) rotate(-180)" fill="none" stroke="#fff" stroke-miterlimit="10" stroke-width="1.6"/>
                    <ellipse cx="68.495" cy="39.274" rx="2.124" ry="2.274" fill="none" stroke="#fff" stroke-miterlimit="10" stroke-width="1.6"/></g><g mask="url(#mask)">
                        <g id="Hand"><rect x="40.528" y="32.888" width="3.729" height="7.701" rx="1.401" transform="translate(84.784 73.477) rotate(-180)" fill="none" stroke="#fff" stroke-miterlimit="10" stroke-width="1.6"/><rect x="44.257" y="30.963" width="3.729" height="9.626" rx="1.592" transform="translate(92.242 71.552) rotate(-180)" fill="none" stroke="#fff" stroke-miterlimit="10" stroke-width="1.6"/><path d="M51.715,38V31.509A1.606,1.606,0,0,0,50.035,30h-.369a1.606,1.606,0,0,0-1.68,1.509V38" fill="none" stroke="#fff" stroke-miterlimit="10" stroke-width="1.6"/><path d="M55.444,38V32.357a1.508,1.508,0,0,0-1.592-1.394h-.545a1.507,1.507,0,0,0-1.592,1.394V38" fill="none" stroke="#fff" stroke-miterlimit="10" stroke-width="1.6"/><path d="M40.528,39.215v7.348a2.521,2.521,0,0,0,.907,2.038,3.646,3.646,0,0,1,1.083,1.7,6.447,6.447,0,0,1,.34,2.133V74.563h9.323V49.2" fill="none" stroke="#fff" stroke-miterlimit="10" stroke-width="1.6"/><path d="M51.614,45.262c1.445-.537,1.248-3.729-.288-3.765H50.065A1.6,1.6,0,0,1,48.5,39.879V37.646h7.545c1.562-.286,1.472,1.58,1.7,2.533a4.943,4.943,0,0,1,.115.716c.129,1.524.074,8.12-3.168,8.3H52.181" fill="none" stroke="#fff" stroke-linecap="round" stroke-miterlimit="10" stroke-width="1.6"/></g></g><g id="Sleeve"><path fill="#fff" d="M40.5,89.5V56.453a.953.953,0,0,1,.953-.953h12.2a1.421,1.421,0,0,1,1.42,1.419V89.5Z"/><path stroke="#fff" d="M53.651,56a.92.92,0,0,1,.919.919V89H41V56.453A.458.458,0,0,1,41.453,56h12.2m0-1h-12.2A1.457,1.457,0,0,0,40,56.453V89.61a.391.391,0,0,0,.39.39H55.18a.391.391,0,0,0,.39-.39V56.919A1.925,1.925,0,0,0,53.651,55Z"/></g></g><rect x="22.5" y="22.5" width="75" height="75" rx="12.5" fill="none" stroke="#fff" stroke-miterlimit="10" stroke-width="1.6"/></svg>