<svg id="Layer_1" data-name="Layer 1" xmlns="http://www.w3.org/2000/svg" xmlns:xlink="http://www.w3.org/1999/xlink" viewBox="0 0 120 120"><defs><filter id="luminosity-invert-noclip" x="29" y="29" width="55.078" height="62" filterUnits="userSpaceOnUse" color-interpolation-filters="sRGB"><feColorMatrix values="-1 0 0 0 1 0 -1 0 0 1 0 0 -1 0 1 0 0 0 1 0" result="invert"/><feFlood flood-color="#fff" result="bg"/><feBlend in="invert" in2="bg"/></filter><mask id="mask" x="29" y="29" width="55.078" height="62" maskUnits="userSpaceOnUse"><g id="Mask-2" data-name="Mask" filter="url(#luminosity-invert-noclip)"><path d="M68.572,66.21a15.517,15.517,0,0,1-3.72-.455,15.5,15.5,0,0,1-11.31-18.793,15.517,15.517,0,0,1,18.763-11.3A15.5,15.5,0,0,1,83.614,54.459,15.531,15.531,0,0,1,68.572,66.21Zm0-29.292A13.881,13.881,0,0,0,55.107,47.4,13.783,13.783,0,0,0,65.221,64.091,13.9,13.9,0,0,0,82.05,54.024h0A13.784,13.784,0,0,0,71.935,37.33,13.971,13.971,0,0,0,68.576,36.918Z" fill="#fff"/></g></mask></defs><g id="Employment"><g mask="url(#mask)"><g id="Doc"><path stroke="none" fill="#fff" d="M57.591,30.6a4.571,4.571,0,0,1,2.69.832l9.841,7.217a2.688,2.688,0,0,1,1.2,2.121v47.6A1.092,1.092,0,0,1,70.177,89.4H31.745A1.092,1.092,0,0,1,30.6,88.373V31.627A1.092,1.092,0,0,1,31.745,30.6H57.591m0-1.6H31.745A2.688,2.688,0,0,0,29,31.627V88.373A2.688,2.688,0,0,0,31.745,91H70.177a2.688,2.688,0,0,0,2.745-2.627V40.77a4.263,4.263,0,0,0-1.854-3.412l-9.841-7.216A6.179,6.179,0,0,0,57.591,29Z"/><path d="M59.2,29.9v7.732a2.3,2.3,0,0,0,2.362,2.223H72.1" fill="none" stroke="#fff" stroke-miterlimit="10" stroke-width="1.6"/><rect stroke="#fff" fill="#fff" x="33.941" y="41.348" width="21.412" height="1.653" rx="0.827"/><rect stroke="#fff" fill="#fff" x="33.941" y="34.115" width="6.039" height="1.653" rx="0.827"/><rect stroke="#fff" fill="#fff" x="41.628" y="34.115" width="6.039" height="1.653" rx="0.827"/><rect stroke="#fff" fill="#fff" x="33.941" y="45.654" width="12.078" height="1.653" rx="0.827"/><rect stroke="#fff" fill="#fff" x="47.667" y="45.654" width="20.863" height="1.653" rx="0.827"/><rect stroke="#fff" fill="#fff" x="33.941" y="49.959" width="34.588" height="1.653" rx="0.827"/><rect stroke="#fff" fill="#fff" x="33.941" y="59.087" width="12.078" height="1.653" rx="0.827"/><rect stroke="#fff" fill="#fff" x="35.039" y="77.687" width="12.078" height="1.653" rx="0.674"/><rect stroke="#fff" fill="#fff" x="47.667" y="59.087" width="20.863" height="1.653" rx="0.827"/><rect stroke="#fff" fill="#fff" x="48.765" y="81.821" width="20.863" height="1.653" rx="0.827"/><rect stroke="#fff" fill="#fff" x="33.941" y="63.393" width="34.588" height="1.653" rx="0.827"/><rect stroke="#fff" fill="#fff" x="33.941" y="67.698" width="12.078" height="1.653" rx="0.827"/><rect stroke="#fff" fill="#fff" x="55.353" y="67.698" width="13.177" height="1.653" rx="0.827"/><rect stroke="#fff" fill="#fff" x="47.875" y="67.698" width="5.282" height="1.653" rx="0.827"/></g></g><g id="Mag"><line x1="76.186" y1="62.605" x2="89" y2="82.637" fill="none" stroke="#fff" stroke-linecap="round" stroke-miterlimit="10" stroke-width="1.6"/><circle cx="68.578" cy="50.711" r="13" fill="#1B264F" stroke="#fff" stroke-miterlimit="10" stroke-width="1.6"/><polyline points="61.309 51.212 65.701 55.345 75.583 47.079" fill="none" stroke="#fff" stroke-linecap="round" stroke-miterlimit="10" stroke-width="1.6"/></g></g><rect x="22" y="23" width="75" height="75" rx="12.5" fill="none" stroke="#fff" stroke-miterlimit="10" stroke-width="1.6"/></svg>