<svg id="Layer_1" data-name="Layer 1" xmlns="http://www.w3.org/2000/svg" viewBox="0 0 120 120"><g id="PersonalInjury"><path d="M34.528,90C31.755,90,30,87.7,30,84.882V34.092C30,31.262,31.745,30,34.528,30H54.716c2.783,0,5.032,1.262,5.032,4.092V56.923a5.085,5.085,0,0,0,4.961,5.128l10.669.175C83.7,62.226,90,68.667,90,77.128a11.908,11.908,0,0,1-4.286,9.518A16.135,16.135,0,0,1,75.378,90Z" fill="none"/><path d="M59.748,56.923a5.085,5.085,0,0,0,4.961,5.128l10.669.175C83.7,62.226,90,68.667,90,77.128a11.908,11.908,0,0,1-4.286,9.518A16.135,16.135,0,0,1,75.378,90H34.528C31.755,90,30,87.7,30,84.882V34.092C30,31.262,31.745,30,34.528,30H54.716c2.783,0,5.032,1.262,5.032,4.092Z" fill="none" stroke="#fff" stroke-miterlimit="10" stroke-width="1.6"/><polyline points="59.748 36.529 40.754 46.131 30.504 50.798" fill="none" stroke="#fff" stroke-miterlimit="10" stroke-width="1.6"/><line x1="71.179" y1="62.162" x2="39.076" y2="90" fill="none" stroke="#fff" stroke-miterlimit="10" stroke-width="1.6"/><line x1="30" y1="73" x2="41.092" y2="45.897" fill="none" stroke="#fff" stroke-miterlimit="10" stroke-width="1.6"/><line x1="42.262" y1="30" x2="53.022" y2="39.918" fill="none" stroke="#fff" stroke-miterlimit="10" stroke-width="1.6"/><line x1="72.514" y1="90" x2="75.378" y2="62.231" fill="none" stroke="#fff" stroke-miterlimit="10" stroke-width="1.6"/><line x1="74.37" y1="70.295" x2="89.296" y2="70.295" fill="none" stroke="#fff" stroke-miterlimit="10" stroke-width="1.6"/><line x1="53" y1="78" x2="37.422" y2="55.248" fill="none" stroke="#fff" stroke-miterlimit="10" stroke-width="1.6"/><line x1="59.748" y1="53.923" x2="40.754" y2="46.131" fill="none" stroke="#fff" stroke-miterlimit="10" stroke-width="1.6"/><line x1="60" y1="54" x2="45" y2="66" fill="none" stroke="#fff" stroke-miterlimit="10" stroke-width="1.6"/><line x1="73.23" y1="82.308" x2="82.604" y2="88.055" fill="none" stroke="#fff" stroke-miterlimit="10" stroke-width="1.6"/></g><rect x="22" y="22" width="75" height="75" rx="12.5" fill="none" stroke="#fff" stroke-miterlimit="10" stroke-width="1.6"/></svg>