<svg id="Layer_1" data-name="Layer 1" xmlns="http://www.w3.org/2000/svg" viewBox="0 0 225 76"><path d="M14.688,49.641V19.053H18.45l5.912,18.429h.076V19.053h3.916V49.641H24.669L18.681,31.254H18.6V49.641Z" fill="#001f54"/><path d="M37.145,49.641V47.406h-.077a7.764,7.764,0,0,1-1.555,1.848,3.393,3.393,0,0,1-2.207.644,4.43,4.43,0,0,1-1.4-.236,3.543,3.543,0,0,1-1.363-.881,4.225,4.225,0,0,1-1.056-1.74,8.987,8.987,0,0,1-.4-2.942,17.256,17.256,0,0,1,.269-3.244,5.465,5.465,0,0,1,1-2.341,4.159,4.159,0,0,1,1.881-1.354,8.653,8.653,0,0,1,3.033-.451h.422a2.043,2.043,0,0,1,.422.043,2.119,2.119,0,0,0,.461.043,4.462,4.462,0,0,1,.576.043V34.562a3.657,3.657,0,0,0-.422-1.848,1.625,1.625,0,0,0-1.536-.731,2.072,2.072,0,0,0-1.4.559,2.736,2.736,0,0,0-.826,1.633h-3.8a7.441,7.441,0,0,1,1.766-4.726A5.556,5.556,0,0,1,32.769,28.1a5.726,5.726,0,0,1,2.418-.494,6.156,6.156,0,0,1,2.3.429,5.209,5.209,0,0,1,1.881,1.289A6.455,6.455,0,0,1,40.6,31.468a8.934,8.934,0,0,1,.46,3.008V49.641Zm0-9.366a5.777,5.777,0,0,0-1.075-.129,3.549,3.549,0,0,0-2.169.666,2.839,2.839,0,0,0-.9,2.427,3.472,3.472,0,0,0,.537,2.02,1.724,1.724,0,0,0,1.5.773,1.842,1.842,0,0,0,1.555-.73,3.344,3.344,0,0,0,.557-2.063Z" fill="#001f54"/><path d="M53.958,27.859,48.891,49.641H45.436L40.369,27.859h4.146l2.61,13.92H47.2l2.61-13.92Z" fill="#001f54"/><path d="M61.021,49.641V47.406h-.077a7.786,7.786,0,0,1-1.554,1.848,3.393,3.393,0,0,1-2.207.644,4.436,4.436,0,0,1-1.4-.236,3.55,3.55,0,0,1-1.363-.881,4.224,4.224,0,0,1-1.055-1.74,8.957,8.957,0,0,1-.4-2.942,17.249,17.249,0,0,1,.27-3.244,5.441,5.441,0,0,1,1-2.341,4.156,4.156,0,0,1,1.88-1.354,8.657,8.657,0,0,1,3.033-.451h.422a2.053,2.053,0,0,1,.423.043,2.1,2.1,0,0,0,.46.043,4.449,4.449,0,0,1,.576.043V34.562a3.657,3.657,0,0,0-.422-1.848,1.624,1.624,0,0,0-1.536-.731,2.072,2.072,0,0,0-1.4.559,2.741,2.741,0,0,0-.825,1.633h-3.8A7.446,7.446,0,0,1,54.8,29.449,5.566,5.566,0,0,1,56.645,28.1a5.726,5.726,0,0,1,2.418-.494,6.161,6.161,0,0,1,2.3.429,5.217,5.217,0,0,1,1.881,1.289,6.455,6.455,0,0,1,1.229,2.148,8.959,8.959,0,0,1,.46,3.008V49.641Zm0-9.366a5.758,5.758,0,0,0-1.075-.129,3.551,3.551,0,0,0-2.169.666,2.841,2.841,0,0,0-.9,2.427,3.465,3.465,0,0,0,.538,2.02,1.722,1.722,0,0,0,1.5.773,1.842,1.842,0,0,0,1.554-.73,3.344,3.344,0,0,0,.557-2.063Z" fill="#001f54"/><path d="M65.9,49.641V19.053h3.916V29.836h.077a5,5,0,0,1,1.554-1.654A3.714,3.714,0,0,1,73.5,27.6a3.776,3.776,0,0,1,2.208.558,4.487,4.487,0,0,1,1.285,1.418,4.685,4.685,0,0,1,.5,1.8q.115,1.116.115,3.479v8.291a21.382,21.382,0,0,1-.153,2.879,6.29,6.29,0,0,1-.5,1.8A3.5,3.5,0,0,1,73.536,49.9a3.371,3.371,0,0,1-2.226-.644,10.111,10.111,0,0,1-1.5-1.59v1.977Zm7.793-15.079a3.846,3.846,0,0,0-.4-1.8,1.549,1.549,0,0,0-1.516-.774,1.751,1.751,0,0,0-1.4.666,2.555,2.555,0,0,0-.557,1.7V42.81a3.281,3.281,0,0,0,.538,1.955,1.665,1.665,0,0,0,1.42.752,1.556,1.556,0,0,0,1.459-.817,4.355,4.355,0,0,0,.46-2.148Z" fill="#001f54"/><path d="M88.662,49.646v-29.9h4.284V45.362h8.485v4.284Z" fill="#001f54"/><path d="M110.67,49.646V47.463h-.084a7.944,7.944,0,0,1-1.7,1.806,4.038,4.038,0,0,1-2.415.629,5.389,5.389,0,0,1-1.533-.23,3.964,3.964,0,0,1-1.491-.861,4.1,4.1,0,0,1-1.155-1.7,7.909,7.909,0,0,1-.441-2.876,15.118,15.118,0,0,1,.294-3.171,5.056,5.056,0,0,1,1.091-2.289,4.577,4.577,0,0,1,2.059-1.324A10.507,10.507,0,0,1,108.611,37h.463a2.436,2.436,0,0,1,.462.043,2.7,2.7,0,0,0,.5.041,5.336,5.336,0,0,1,.63.043V34.9a3.26,3.26,0,0,0-.462-1.805,1.85,1.85,0,0,0-1.681-.714,2.413,2.413,0,0,0-1.532.546,2.587,2.587,0,0,0-.9,1.6h-4.158a6.841,6.841,0,0,1,1.932-4.62,6.111,6.111,0,0,1,2.016-1.323,6.922,6.922,0,0,1,2.645-.482,7.439,7.439,0,0,1,2.521.42,5.761,5.761,0,0,1,2.057,1.259,6.159,6.159,0,0,1,1.345,2.1,7.882,7.882,0,0,1,.5,2.939V49.646Zm0-9.156a7.04,7.04,0,0,0-1.176-.126,4.208,4.208,0,0,0-2.373.652,2.631,2.631,0,0,0-.987,2.373,3.115,3.115,0,0,0,.588,1.973,1.955,1.955,0,0,0,1.637.756,2.114,2.114,0,0,0,1.7-.714,3.011,3.011,0,0,0,.609-2.015Z" fill="#001f54"/><path d="M137.172,28.353l-5.04,21.293h-3.779L126,37h-.084l-2.352,12.642h-3.78l-5.04-21.293h4.536l2.6,13.229h.084l2.394-13.229h3.36l2.268,13.229h.084l2.562-13.229Z" fill="#001f54"/><path d="M21.278,64.1l-.929-2.046h-4.31L15.11,64.1h-.564l3.4-7.359h.522l3.4,7.359ZM18.2,57.34l-1.931,4.227H20.12Z"/><path d="M25.93,61.38H23.958V64.1h-.543V56.8h2.651c1.607,0,2.714.824,2.714,2.233v.021C28.78,60.586,27.454,61.38,25.93,61.38Zm2.307-2.318c0-1.158-.9-1.763-2.213-1.763H23.958v3.58h2c1.356,0,2.275-.71,2.275-1.8Z"/><path d="M33.694,64.229a3.631,3.631,0,0,1-3.632-3.757V60.45a3.672,3.672,0,0,1,3.653-3.778,3.85,3.85,0,0,1,2.839,1.17l-.387.4A3.349,3.349,0,0,0,33.7,57.163a3.124,3.124,0,0,0-3.079,3.267v.02a3.151,3.151,0,0,0,3.09,3.288A3.347,3.347,0,0,0,36.23,62.6l.365.354A3.848,3.848,0,0,1,33.694,64.229Z"/></svg>