<svg id="Layer_1" data-name="Layer 1" xmlns="http://www.w3.org/2000/svg" viewBox="0 0 225 76"><path d="M14.688,50.006V19.418H18.45l5.912,18.43h.076V19.418h3.916V50.006H24.669L18.681,31.619H18.6V50.006Z" fill="#001f54"/><path d="M37.145,50.006V47.771h-.077a7.764,7.764,0,0,1-1.555,1.848,3.393,3.393,0,0,1-2.207.645,4.4,4.4,0,0,1-1.4-.237,3.543,3.543,0,0,1-1.363-.881,4.225,4.225,0,0,1-1.056-1.74,8.987,8.987,0,0,1-.4-2.942,17.237,17.237,0,0,1,.269-3.243,5.464,5.464,0,0,1,1-2.342,4.159,4.159,0,0,1,1.881-1.354,8.676,8.676,0,0,1,3.033-.451h.422a2.043,2.043,0,0,1,.422.043,2.119,2.119,0,0,0,.461.043,4.462,4.462,0,0,1,.576.043V34.927a3.66,3.66,0,0,0-.422-1.848,1.624,1.624,0,0,0-1.536-.73,2.07,2.07,0,0,0-1.4.558,2.736,2.736,0,0,0-.826,1.633h-3.8a7.443,7.443,0,0,1,1.766-4.726,5.556,5.556,0,0,1,1.843-1.353,5.726,5.726,0,0,1,2.418-.494,6.156,6.156,0,0,1,2.3.429,5.211,5.211,0,0,1,1.881,1.29A6.45,6.45,0,0,1,40.6,31.833a8.934,8.934,0,0,1,.46,3.008V50.006Zm0-9.365a5.777,5.777,0,0,0-1.075-.129,3.542,3.542,0,0,0-2.169.666A2.836,2.836,0,0,0,33,43.6a3.47,3.47,0,0,0,.537,2.02,1.722,1.722,0,0,0,1.5.773,1.842,1.842,0,0,0,1.555-.73,3.342,3.342,0,0,0,.557-2.063Z" fill="#001f54"/><path d="M53.958,28.225,48.891,50.006H45.436L40.369,28.225h4.146l2.61,13.92H47.2l2.61-13.92Z" fill="#001f54"/><path d="M61.021,50.006V47.771h-.077a7.786,7.786,0,0,1-1.554,1.848,3.393,3.393,0,0,1-2.207.645,4.409,4.409,0,0,1-1.4-.237,3.55,3.55,0,0,1-1.363-.881,4.224,4.224,0,0,1-1.055-1.74,8.957,8.957,0,0,1-.4-2.942,17.231,17.231,0,0,1,.27-3.243,5.44,5.44,0,0,1,1-2.342,4.156,4.156,0,0,1,1.88-1.354,8.68,8.68,0,0,1,3.033-.451h.422a2.053,2.053,0,0,1,.423.043,2.1,2.1,0,0,0,.46.043,4.449,4.449,0,0,1,.576.043V34.927a3.66,3.66,0,0,0-.422-1.848,1.623,1.623,0,0,0-1.536-.73,2.07,2.07,0,0,0-1.4.558,2.741,2.741,0,0,0-.825,1.633h-3.8A7.448,7.448,0,0,1,54.8,29.814a5.566,5.566,0,0,1,1.843-1.353,5.726,5.726,0,0,1,2.418-.494,6.161,6.161,0,0,1,2.3.429,5.22,5.22,0,0,1,1.881,1.29,6.45,6.45,0,0,1,1.229,2.147,8.959,8.959,0,0,1,.46,3.008V50.006Zm0-9.365a5.758,5.758,0,0,0-1.075-.129,3.544,3.544,0,0,0-2.169.666,2.839,2.839,0,0,0-.9,2.426,3.463,3.463,0,0,0,.538,2.02,1.72,1.72,0,0,0,1.5.773,1.842,1.842,0,0,0,1.554-.73,3.342,3.342,0,0,0,.557-2.063Z" fill="#001f54"/><path d="M65.9,50.006V19.418h3.916V30.2h.077a5,5,0,0,1,1.554-1.654,3.714,3.714,0,0,1,2.054-.58,3.776,3.776,0,0,1,2.208.558,4.487,4.487,0,0,1,1.285,1.418,4.685,4.685,0,0,1,.5,1.8q.115,1.116.115,3.48v8.291a21.355,21.355,0,0,1-.153,2.878,6.29,6.29,0,0,1-.5,1.8,3.5,3.5,0,0,1-3.416,2.063,3.371,3.371,0,0,1-2.226-.645,10.111,10.111,0,0,1-1.5-1.59v1.977Zm7.793-15.079a3.849,3.849,0,0,0-.4-1.8,1.548,1.548,0,0,0-1.516-.773,1.748,1.748,0,0,0-1.4.666,2.551,2.551,0,0,0-.557,1.7v8.463a3.279,3.279,0,0,0,.538,1.955,1.665,1.665,0,0,0,1.42.752,1.556,1.556,0,0,0,1.459-.817,4.352,4.352,0,0,0,.46-2.148Z" fill="#001f54"/><path d="M87.224,50.006V19.938h5.913V43.992h13.4v6.014Z" fill="#274690"/><path d="M120.507,50.006V47.515a7.554,7.554,0,0,1-6.22,2.921c-3.877,0-7.063-2.492-7.063-7.045v-.086c0-5.026,3.417-7.345,8.292-7.345a13.243,13.243,0,0,1,5.029.945v-.386c0-2.707-1.5-4.21-4.415-4.21a13.74,13.74,0,0,0-5.682,1.246l-1.459-4.983a16.539,16.539,0,0,1,7.986-1.847c6.373,0,9.175,3.694,9.175,9.922V50.006Zm.115-9.278a8.248,8.248,0,0,0-3.724-.859c-2.5,0-4.031,1.116-4.031,3.179v.085c0,1.762,1.3,2.792,3.186,2.792,2.726,0,4.569-1.675,4.569-4.037Z" fill="#274690"/><path d="M152.369,50.178H147.11l-3.955-14.132-4.03,14.132H133.9l-6.335-23.2h5.912l3.3,13.96L140.66,26.9h5.029L149.6,40.985l3.378-14h5.8Z" fill="#274690"/><path d="M21.278,64.1l-.929-2.046h-4.31L15.11,64.1h-.564l3.4-7.359h.522l3.4,7.359ZM18.2,57.34l-1.931,4.227H20.12Z"/><path d="M25.93,61.38H23.958V64.1h-.543V56.8h2.651c1.607,0,2.714.824,2.714,2.233v.021C28.78,60.586,27.454,61.38,25.93,61.38Zm2.307-2.318c0-1.158-.9-1.763-2.213-1.763H23.958v3.58h2c1.356,0,2.275-.71,2.275-1.8Z"/><path d="M33.694,64.229a3.631,3.631,0,0,1-3.632-3.757V60.45a3.672,3.672,0,0,1,3.653-3.778,3.85,3.85,0,0,1,2.839,1.17l-.387.4A3.349,3.349,0,0,0,33.7,57.163a3.124,3.124,0,0,0-3.079,3.267v.02a3.151,3.151,0,0,0,3.09,3.288A3.347,3.347,0,0,0,36.23,62.6l.365.354A3.848,3.848,0,0,1,33.694,64.229Z"/></svg>